<svg xmlns="http://www.w3.org/2000/svg" version="1.0" width="1102.000000pt" height="1280.000000pt" viewBox="0 0 1102.000000 1280.000000" preserveAspectRatio="xMidYMid meet">
<metadata>
Created by potrace 1.15, written by Peter Selinger 2001-2017
</metadata>
<g transform="translate(0.000000,1280.000000) scale(0.100000,-0.100000)" fill="#1ed95c" stroke="none">
<path d="M6367 12790 c-320 -29 -518 -118 -708 -317 -85 -90 -135 -162 -184 -265 -48 -101 -66 -176 -72 -298 -9 -192 28 -303 212 -625 69 -121 139 -254 156 -295 44 -108 77 -159 107 -172 15 -7 50 -28 77 -48 28 -21 73 -43 100 -49 28 -7 61 -19 74 -28 45 -29 91 -12 183 67 99 86 187 146 240 162 55 16 81 1 117 -69 16 -32 43 -71 61 -88 40 -38 60 -76 60 -113 0 -27 -86 -180 -190 -340 -40 -60 -49 -64 -145 -66 -101 -1 -125 -19 -125 -90 l0 -53 -157 -27 -158 -27 -70 21 c-85 24 -109 25 -130 3 -21 -20 -15 -56 25 -153 l29 -71 -22 -8 c-12 -5 -40 -12 -62 -15 l-41 -7 -11 -95 c-7 -55 -20 -112 -33 -138 -25 -53 -294 -312 -334 -322 -18 -4 -39 2 -70 20 -76 44 -87 67 -130 249 -21 93 -44 123 -101 131 -53 8 -57 23 -21 76 41 62 41 76 0 92 l-36 15 -47 -46 c-26 -25 -90 -68 -142 -95 -52 -27 -141 -84 -199 -126 -58 -42 -186 -125 -285 -184 -243 -147 -287 -177 -379 -265 -155 -151 -254 -284 -286 -387 -12 -38 -32 -95 -46 -127 -43 -103 -32 -147 63 -261 55 -66 55 -68 37 -86 -28 -28 -504 -305 -548 -320 -48 -15 -68 -10 -163 47 -126 75 -450 229 -550 262 -125 41 -230 62 -345 68 l-97 6 -17 -42 -16 -41 -57 7 c-31 4 -162 8 -291 8 -309 0 -406 -20 -638 -130 -394 -188 -760 -549 -902 -891 -125 -301 -131 -721 -14 -1056 171 -489 583 -882 1109 -1057 477 -158 969 -124 1415 98 222 110 354 214 528 415 148 171 198 258 274 469 22 62 47 120 56 131 17 19 42 19 155 0 l37 -7 0 54 c0 30 7 104 15 164 8 61 15 144 15 185 0 111 -26 291 -59 408 l-30 103 84 117 c97 137 151 195 194 210 27 10 39 7 88 -19 93 -48 183 -112 189 -134 2 -11 1 -47 -3 -80 -9 -66 -5 -64 -98 -54 l-40 4 -7 -50 c-3 -27 -14 -117 -22 -200 -9 -82 -28 -226 -42 -320 -14 -93 -32 -224 -41 -289 l-15 -119 35 -31 c19 -17 37 -41 40 -53 7 -33 -11 -252 -33 -391 -21 -129 -27 -253 -15 -313 6 -33 4 -37 -22 -47 -15 -6 -50 -14 -76 -18 -45 -6 -60 -17 -205 -148 -211 -190 -351 -326 -367 -356 -9 -17 -10 -31 -4 -43 6 -9 72 -48 147 -87 150 -76 229 -132 796 -554 438 -327 546 -405 678 -496 97 -67 104 -70 160 -70 l59 0 18 -44 c21 -48 45 -68 140 -116 35 -17 85 -49 112 -70 96 -76 350 -208 589 -305 131 -54 199 -69 284 -63 55 3 82 12 156 51 50 26 99 47 109 47 25 0 132 -80 160 -118 38 -53 37 -80 -9 -216 -53 -160 -69 -252 -70 -397 -1 -429 121 -846 345 -1184 150 -225 219 -286 560 -490 72 -43 149 -87 173 -97 34 -15 43 -24 40 -41 -3 -21 -9 -22 -138 -28 -74 -4 -214 -2 -310 3 -100 6 -250 7 -350 3 -96 -4 -248 -10 -337 -14 -182 -7 -191 -10 -202 -78 l-6 -38 -120 -7 c-294 -17 -415 -57 -415 -138 0 -34 17 -57 67 -92 26 -17 64 -47 84 -65 70 -63 76 -64 1089 -73 743 -7 919 -11 985 -24 131 -25 152 -22 349 46 l181 63 260 3 c834 9 1384 21 1420 31 22 6 132 15 245 20 354 17 472 38 500 90 16 31 17 114 1 144 -31 59 -92 68 -366 57 -87 -4 -135 -1 -173 9 l-52 15 6 47 c14 107 -54 163 -201 162 -223 -1 -984 -23 -1012 -29 -65 -13 -40 15 159 175 70 57 157 135 194 174 92 99 194 257 275 422 160 330 219 612 190 915 -14 148 -70 433 -106 541 -74 220 -317 582 -501 745 -38 33 -130 101 -204 151 -74 50 -143 100 -153 111 -17 19 -17 22 -3 44 9 13 29 34 46 46 40 30 62 85 62 153 0 107 -73 224 -204 328 -70 55 -98 94 -98 136 0 7 14 29 30 50 30 38 37 72 21 103 -4 9 -11 32 -14 50 -6 32 -6 32 35 32 44 0 371 -74 423 -96 51 -21 174 -159 187 -210 11 -40 17 -45 86 -81 101 -52 219 -148 301 -246 162 -194 424 -575 515 -751 l31 -59 -1 -186 c-2 -254 -24 -458 -95 -878 -31 -180 -32 -226 -6 -236 8 -3 124 -3 258 0 l245 6 18 96 c10 53 33 208 52 344 18 136 45 306 59 377 43 222 35 265 -66 360 -58 55 -73 76 -92 130 -21 60 -174 330 -357 630 -225 369 -241 417 -152 453 l40 16 -15 45 c-29 86 7 150 97 177 35 11 40 16 40 41 0 24 -6 32 -35 44 -49 20 -64 49 -69 132 -3 44 -12 85 -23 103 -16 28 -189 170 -318 262 -27 19 -97 57 -155 85 -58 27 -166 86 -240 131 -74 45 -196 113 -271 151 -293 149 -339 154 -588 69 -63 -21 -129 -39 -146 -39 -34 0 -251 85 -320 125 -43 25 -168 157 -228 241 -49 68 -84 150 -103 238 -9 45 -29 95 -54 137 -22 36 -40 71 -40 79 0 7 13 25 29 39 21 19 36 50 56 116 35 118 114 280 168 347 23 29 61 78 84 108 75 101 422 440 532 520 192 140 202 149 261 251 30 53 78 126 106 164 56 73 79 136 115 307 13 65 17 112 13 155 -6 55 -4 68 21 115 24 45 27 60 22 113 -5 70 -57 224 -146 435 -68 163 -219 578 -257 708 -13 47 -33 127 -44 178 -11 53 -34 121 -54 160 -19 38 -55 127 -80 197 -51 145 -68 177 -177 332 -42 61 -123 186 -179 279 -158 263 -204 328 -288 408 -115 110 -177 141 -439 217 -92 27 -195 59 -228 71 -60 22 -115 23 -221 4 -27 -5 -35 -1 -58 29 l-27 35 16 67 c13 59 13 74 0 140 -41 197 -92 288 -269 475 -121 128 -172 194 -189 246 l-14 39 -99 1 c-54 1 -139 -2 -187 -6z m-277 -2948 c0 -26 -7 -45 -20 -57 -11 -10 -20 -24 -20 -32 0 -14 -45 -18 -74 -7 -20 8 -21 46 -1 84 19 36 41 49 83 50 31 0 32 -2 32 -38z m766 -132 l33 -21 41 21 c72 37 88 28 126 -72 19 -47 50 -141 70 -207 l36 -121 -46 -186 c-48 -192 -51 -200 -125 -299 -63 -85 -112 -135 -134 -135 -10 0 -37 21 -60 46 -117 129 -134 144 -163 144 -16 0 -51 -12 -77 -26 l-48 -25 -46 38 c-71 60 -106 83 -126 83 -48 0 -93 -43 -214 -203 -26 -34 -51 -57 -65 -59 -15 -2 -24 -11 -26 -26 -3 -19 -9 -23 -30 -20 -21 2 -34 16 -64 71 -20 37 -48 81 -62 98 -30 35 -32 57 -11 85 23 30 18 60 -20 110 -19 25 -35 55 -35 66 0 22 50 101 103 163 19 22 69 62 112 89 76 48 78 49 105 32 37 -21 82 -20 128 3 74 38 431 281 442 300 14 27 79 71 104 71 10 0 34 -9 52 -20z m-1046 -229 c0 -46 -105 -218 -161 -263 -52 -42 -209 -63 -209 -29 0 5 12 24 27 41 24 29 57 58 255 228 71 60 88 64 88 23z m545 -792 c60 -92 115 -206 115 -241 0 -17 -7 -31 -19 -38 -50 -26 -198 3 -246 50 -16 16 -42 33 -58 39 -27 10 -27 12 -13 44 28 68 142 217 166 217 5 0 29 -32 55 -71z m990 -496 c-3 -15 -55 -76 -114 -137 -59 -61 -122 -132 -140 -158 -36 -54 -66 -67 -112 -48 -42 18 -113 89 -127 127 -10 31 -9 32 21 38 175 33 227 55 227 94 0 45 61 81 195 116 54 14 61 9 50 -32z m-3447 -264 c2 -27 -3 -44 -22 -66 -26 -31 -394 -251 -453 -271 -32 -10 -32 -10 -49 34 -16 42 -16 45 2 65 15 17 329 209 429 263 17 8 44 15 60 13 27 -2 30 -6 33 -38z m-2073 -229 c113 -10 239 -34 264 -49 20 -13 -36 -71 -77 -79 -19 -4 -93 -3 -165 1 -446 28 -685 -106 -873 -490 -53 -108 -62 -163 -45 -298 15 -127 35 -197 83 -295 33 -68 58 -101 122 -165 118 -116 231 -176 436 -232 79 -21 118 -26 230 -26 192 -1 264 20 482 145 l87 50 64 -31 c67 -33 96 -37 127 -21 33 18 44 52 50 160 l6 105 63 94 c69 102 151 253 151 277 0 11 9 14 36 12 35 -3 38 -6 54 -59 42 -130 35 -252 -21 -421 -42 -126 -70 -178 -147 -278 -208 -268 -412 -397 -727 -456 -110 -21 -345 -23 -460 -5 -397 64 -808 386 -944 741 -64 165 -84 391 -48 530 40 151 133 299 284 453 100 102 160 145 288 209 240 121 410 153 680 128z m2420 -1634 c59 -35 97 -95 103 -161 6 -70 -12 -99 -81 -131 -60 -28 -138 -32 -157 -9 -10 12 -11 49 -6 153 4 75 9 145 12 155 8 26 78 23 129 -7z m-25 -523 c0 -21 -13 -66 -30 -101 -26 -56 -32 -63 -52 -57 -51 15 -102 104 -85 149 7 18 82 44 130 45 36 1 37 0 37 -36z m3045 -605 c31 -12 63 -31 70 -42 26 -41 35 -167 35 -500 0 -184 -3 -341 -6 -350 -10 -25 -45 -19 -112 21 l-62 37 -2 70 c-1 39 -2 100 -2 136 -1 49 -7 75 -24 104 l-23 39 26 39 26 39 -41 52 -41 51 30 26 c35 29 37 39 15 82 -12 23 -13 37 -6 52 10 22 -1 58 -30 98 -9 13 -9 22 0 42 10 22 18 26 51 26 22 0 65 -10 96 -22z m523 -488 c44 -102 83 -203 86 -226 l7 -41 -133 -36 c-73 -20 -148 -37 -167 -39 l-34 -3 2 75 c6 188 56 405 108 462 28 31 50 -1 131 -192z m251 113 l48 -48 -10 -102 c-6 -57 -14 -103 -18 -103 -26 0 -49 44 -73 138 -33 129 -33 162 -4 162 5 0 31 -21 57 -47z m411 -1147 c142 -23 276 -81 418 -179 134 -92 282 -273 333 -407 l19 -50 -24 0 c-14 0 -28 5 -31 10 -4 6 -154 109 -333 229 -298 200 -497 337 -562 390 l-25 21 60 0 c33 0 98 -6 145 -14z m-464 -124 c32 -21 80 -50 106 -65 40 -23 68 -52 68 -70 0 -2 -37 -7 -81 -10 -45 -4 -87 -10 -93 -15 -30 -24 -46 -19 -99 26 -30 26 -64 55 -76 64 -23 19 -29 58 -8 58 7 0 28 11 47 25 48 33 67 31 136 -13z m1168 -672 c92 -39 141 -75 157 -113 10 -22 13 -94 14 -252 0 -218 0 -221 -33 -350 -58 -224 -133 -354 -294 -511 -104 -101 -184 -159 -291 -210 -126 -59 -177 -67 -387 -61 -272 7 -354 37 -585 207 -162 120 -279 259 -355 421 -58 124 -108 369 -117 571 -6 133 4 188 34 188 32 0 209 -206 222 -258 5 -20 19 -80 31 -132 62 -266 231 -448 476 -510 93 -24 143 -25 248 -5 59 11 113 14 215 9 129 -6 140 -5 209 19 199 70 369 236 439 431 19 53 18 231 -2 323 -8 37 -28 108 -45 157 -16 50 -30 93 -30 98 0 14 22 9 94 -22z"/>
</g>
</svg>