<?xml version="1.0" encoding="iso-8859-1"?>
<!-- Uploaded to: SVG Repo, www.svgrepo.com, Generator: SVG Repo Mixer Tools -->
<svg fill="#000000" height="800px" width="800px" version="1.1" id="Layer_1" xmlns="http://www.w3.org/2000/svg" xmlns:xlink="http://www.w3.org/1999/xlink" 
	 viewBox="0 0 512 512" xml:space="preserve">
<g>
	<g>
		<g>
			<path d="M256,455.315c-4.418,0-8.001,3.582-8.001,8.001v40.684c0,4.418,3.582,8.001,8.001,8.001c4.418,0,8.001-3.582,8.001-8.001
				v-40.684C264.001,458.897,260.418,455.315,256,455.315z"/>
			<path d="M144.09,413.648l-28.767,28.767c-3.125,3.125-3.125,8.19,0,11.314c1.562,1.563,3.61,2.344,5.657,2.344
				c2.047,0,4.095-0.781,5.657-2.344l28.767-28.767c3.125-3.124,3.125-8.19,0-11.314C152.28,410.523,147.214,410.523,144.09,413.648
				z"/>
			<path d="M290.796,329.468c-1.429-2.475-4.07-4-6.929-4c-2.858,0-5.499,1.525-6.929,4l-7.003,12.129l-7.002-12.129
				c-1.429-2.475-4.07-4-6.929-4c-2.859,0-5.499,1.525-6.929,4l-7.003,12.129l-7.003-12.129c-1.429-2.475-4.071-4-6.929-4
				c-2.859,0-5.499,1.525-6.929,4l-13.932,24.13c-2.209,3.826-0.898,8.72,2.928,10.929c3.825,2.208,8.719,0.898,10.929-2.928
				l7.002-12.129l7.003,12.129c1.429,2.475,4.071,4,6.928,4c2.859,0,5.499-1.525,6.929-4l7.002-12.129l7.002,12.129
				c1.429,2.475,4.07,4,6.928,4c2.858,0,5.499-1.525,6.929-4l7.003-12.129l7.002,12.129c1.482,2.567,4.171,4.001,6.936,4.001
				c1.357,0,2.733-0.346,3.993-1.073c3.826-2.209,5.138-7.102,2.928-10.929L290.796,329.468z"/>
			<path d="M105.735,305.051H65.052c-4.419,0-8.001,3.582-8.001,8.001s3.582,8.001,8.001,8.001h40.682
				c4.418,0,8.001-3.582,8.001-8.001S110.153,305.051,105.735,305.051z"/>
			<path d="M345.629,203.339c-12.338-15.889-22.46-28.934-25.187-43.872c10.932-0.289,19.741-9.252,19.741-20.252V98.243
				c0-11.115-8.991-20.16-20.082-20.268c-2.582-20.823-15.098-38.6-32.655-48.426C286.428,13.085,272.716,0,256,0
				s-30.428,13.085-31.447,29.549c-17.559,9.826-30.075,27.603-32.656,48.426c-11.086,0.112-20.073,9.156-20.073,20.268v40.972
				c0,11,8.809,19.963,19.741,20.252c-2.727,14.938-12.849,27.983-25.187,43.872c-19.987,25.738-44.861,57.772-44.861,112.353
				c0,74.156,60.33,134.486,134.486,134.486s134.486-60.33,134.486-134.486C390.49,261.111,365.616,229.078,345.629,203.339z
				 M256,16.001c5.24,0,9.872,2.618,12.682,6.607c-4.103-0.82-8.342-1.257-12.682-1.257c-4.34,0-8.579,0.437-12.681,1.257
				C246.128,18.619,250.76,16.001,256,16.001z M256,37.353c24.08,0,44.114,17.601,47.943,40.612h-95.886
				C211.885,54.955,231.92,37.353,256,37.353z M187.826,98.243c0-2.359,1.919-4.278,4.278-4.278h127.801
				c2.359,0,4.278,1.919,4.278,4.278v12.485H187.826V98.243z M187.826,139.215v-12.485h136.356v12.485
				c0,2.359-1.919,4.278-4.278,4.278H192.103C189.744,143.493,187.826,141.574,187.826,139.215z M256.004,434.177
				c-65.333,0-118.485-53.152-118.485-118.485c0-49.098,22.046-77.491,41.497-102.539c13.336-17.174,26.008-33.508,28.734-53.658
				h19.559c-1.305,33.789-10.758,58.014-19.92,81.488c-9.796,25.097-19.926,51.049-19.926,87.491c0,4.418,3.582,8.001,8.001,8.001
				s8.001-3.582,8.001-8.001c0-33.43,9.146-56.863,18.83-81.673c9.714-24.887,19.735-50.581,21.026-87.306h25.36
				c1.29,36.726,11.312,62.419,21.026,87.306c9.684,24.809,18.83,48.244,18.83,81.673c0,4.418,3.582,8.001,8.001,8.001
				c4.418,0,8.001-3.582,8.001-8.001c0-36.441-10.13-62.393-19.926-87.491c-9.162-23.473-18.616-47.698-19.92-81.488h19.567
				c2.724,20.151,15.397,36.485,28.733,53.658c19.451,25.049,41.498,53.441,41.498,102.539
				C374.489,381.025,321.336,434.177,256.004,434.177z"/>
			<path d="M367.91,413.648c-3.124-3.124-8.19-3.124-11.314,0c-3.124,3.125-3.124,8.19,0,11.314l28.767,28.767
				c1.562,1.562,3.61,2.344,5.657,2.344s4.095-0.781,5.657-2.344c3.124-3.124,3.124-8.19,0-11.314L367.91,413.648z"/>
			<path d="M446.948,305.051h-40.684c-4.418,0-8.001,3.582-8.001,8.001s3.582,8.001,8.001,8.001h40.684
				c4.418,0,8.001-3.582,8.001-8.001S451.366,305.051,446.948,305.051z"/>
		</g>
	</g>
</g>
</svg>