<svg id="svg" xmlns="http://www.w3.org/2000/svg" xmlns:xlink="http://www.w3.org/1999/xlink" width="400" height="400" viewBox="0, 0, 350,350" fill="currentColor">
	<g id="svgg">
		<path id="path0" d="M223.805 111.168 L 223.600 166.337 181.933 125.231 L 140.266 84.125 112.933 111.467 C 97.900 126.505,85.600 139.165,85.600 139.601 C 85.600 140.038,104.409 159.206,127.397 182.197 L 169.194 224.000 112.197 224.000 L 55.200 224.000 55.200 263.600 L 55.200 303.200 152.178 303.200 L 249.157 303.200 254.002 308.002 L 258.847 312.804 263.598 308.002 L 268.350 303.200 284.175 303.200 C 294.192 303.200,300.000 302.906,300.000 302.400 C 300.000 301.960,300.540 301.600,301.200 301.600 C 302.227 301.600,302.400 299.264,302.400 285.379 L 302.400 269.157 308.000 263.600 C 311.080 260.544,313.600 257.664,313.600 257.200 C 313.600 256.736,311.080 253.856,308.000 250.800 L 302.400 245.243 302.400 150.621 L 302.400 56.000 263.205 56.000 L 224.011 56.000 223.805 111.168 " stroke="none" fill="currentColor" fill-rule="evenodd">
		</path>
	</g>
</svg>
